<?xml version="1.0" encoding="UTF-8" standalone="no"?><svg xmlns="http://www.w3.org/2000/svg" xmlns:xlink="http://www.w3.org/1999/xlink" contentStyleType="text/css" height="1208px" preserveAspectRatio="none" style="width:937px;height:1208px;background:#FFFFFF;" version="1.1" viewBox="0 0 937 1208" width="937px" zoomAndPan="magnify"><defs/><g><!--MD5=[ce56b7f4a8ce584edbef2af89c00e4c0]
class a9d57dbe0_a584_4760_b484_2bcd51537ea5--><g id="elem_a9d57dbe0_a584_4760_b484_2bcd51537ea5"><rect codeLine="2" fill="#F1F1F1" height="115.1997" id="a9d57dbe0_a584_4760_b484_2bcd51537ea5" rx="2.5" ry="2.5" style="stroke:#181818;stroke-width:0.5;" width="158" x="436.5" y="24"/><ellipse cx="483.25" cy="40" fill="#ADD1B2" rx="11" ry="11" style="stroke:#181818;stroke-width:1.0;"/><path d="M482.6094,43.7813 Q483.4063,43.7813 483.9688,43.5938 Q484.5469,43.3906 484.7813,43.1719 Q485.0313,42.9375 485.2656,42.75 Q485.5156,42.5469 485.7344,42.5469 Q486.0781,42.5469 486.3281,42.8125 Q486.5938,43.0625 486.5938,43.3906 Q486.5938,44.125 485.4219,44.8125 Q484.2656,45.4844 482.5625,45.4844 Q480.4063,45.4844 478.9844,44.2188 Q477.5625,42.9531 477.5625,41.0156 L477.5625,39.8906 Q477.5625,37.8594 478.8906,36.4844 Q480.2188,35.0938 482.1875,35.0938 Q483.375,35.0938 484.5938,35.6719 L484.7656,35.75 Q485.0625,35.3438 485.4844,35.3438 Q485.9688,35.3438 486.1406,35.6406 Q486.3281,35.9219 486.3281,36.4688 L486.3281,37.8906 Q486.3281,39.0156 485.4844,39.0156 Q485.1719,39.0156 484.9688,38.8438 Q484.7813,38.6719 484.7344,38.5313 Q484.7031,38.375 484.6563,38.1094 Q484.5469,37.5938 484.0313,37.2813 Q483.5156,36.9688 483.0625,36.8906 Q482.625,36.7969 482.25,36.7969 Q480.9688,36.7969 480.1094,37.6719 Q479.2656,38.5469 479.2656,39.8906 L479.2656,40.9844 Q479.2656,42.2656 480.1719,43.0313 Q481.0781,43.7813 482.6094,43.7813 Z " fill="#000000"/><text fill="#000000" font-family="sans-serif" font-size="14" lengthAdjust="spacing" textLength="56" x="503.75" y="45.6">Moments</text><line style="stroke:#181818;stroke-width:0.5;" x1="437.5" x2="593.5" y1="56" y2="56"/><text fill="#000000" font-family="sans-serif" font-size="14" lengthAdjust="spacing" textLength="129" x="442.5" y="73.9999">Plage horaire : select</text><text fill="#000000" font-family="sans-serif" font-size="14" lengthAdjust="spacing" textLength="74" x="442.5" y="90.7999">Jour : select</text><text fill="#000000" font-family="sans-serif" font-size="14" lengthAdjust="spacing" textLength="61" x="442.5" y="107.5998">Nom : title</text><text fill="#000000" font-family="sans-serif" font-size="14" lengthAdjust="spacing" textLength="146" x="442.5" y="124.3997">Pause ou HI : checkbox</text><line style="stroke:#181818;stroke-width:0.5;" x1="437.5" x2="593.5" y1="131.1997" y2="131.1997"/></g><!--MD5=[5465f43ef3ada4dbbc3d8c99db028f96]
class a38ddf8da_7426_4ad4_a46b_2f81a3b9dd91--><g id="elem_a38ddf8da_7426_4ad4_a46b_2f81a3b9dd91"><rect codeLine="11" fill="#F1F1F1" height="165.5995" id="a38ddf8da_7426_4ad4_a46b_2f81a3b9dd91" rx="2.5" ry="2.5" style="stroke:#181818;stroke-width:0.5;" width="278" x="455.5" y="408"/><ellipse cx="566.25" cy="424" fill="#ADD1B2" rx="11" ry="11" style="stroke:#181818;stroke-width:1.0;"/><path d="M565.6094,427.7813 Q566.4063,427.7813 566.9688,427.5938 Q567.5469,427.3906 567.7813,427.1719 Q568.0313,426.9375 568.2656,426.75 Q568.5156,426.5469 568.7344,426.5469 Q569.0781,426.5469 569.3281,426.8125 Q569.5938,427.0625 569.5938,427.3906 Q569.5938,428.125 568.4219,428.8125 Q567.2656,429.4844 565.5625,429.4844 Q563.4063,429.4844 561.9844,428.2188 Q560.5625,426.9531 560.5625,425.0156 L560.5625,423.8906 Q560.5625,421.8594 561.8906,420.4844 Q563.2188,419.0938 565.1875,419.0938 Q566.375,419.0938 567.5938,419.6719 L567.7656,419.75 Q568.0625,419.3438 568.4844,419.3438 Q568.9688,419.3438 569.1406,419.6406 Q569.3281,419.9219 569.3281,420.4688 L569.3281,421.8906 Q569.3281,423.0156 568.4844,423.0156 Q568.1719,423.0156 567.9688,422.8438 Q567.7813,422.6719 567.7344,422.5313 Q567.7031,422.375 567.6563,422.1094 Q567.5469,421.5938 567.0313,421.2813 Q566.5156,420.9688 566.0625,420.8906 Q565.625,420.7969 565.25,420.7969 Q563.9688,420.7969 563.1094,421.6719 Q562.2656,422.5469 562.2656,423.8906 L562.2656,424.9844 Q562.2656,426.2656 563.1719,427.0313 Q564.0781,427.7813 565.6094,427.7813 Z " fill="#000000"/><text fill="#000000" font-family="sans-serif" font-size="14" lengthAdjust="spacing" textLength="48" x="586.75" y="429.6">Enfants</text><line style="stroke:#181818;stroke-width:0.5;" x1="456.5" x2="732.5" y1="440" y2="440"/><text fill="#000000" font-family="sans-serif" font-size="14" lengthAdjust="spacing" textLength="77" x="461.5" y="457.9999">Sexe : select</text><text fill="#000000" font-family="sans-serif" font-size="14" lengthAdjust="spacing" textLength="154" x="461.5" y="474.7999">Date de naissance : date</text><text fill="#000000" font-family="sans-serif" font-size="14" lengthAdjust="spacing" textLength="177" x="461.5" y="491.5998">Lieu de naissance : rich_text</text><text fill="#000000" font-family="sans-serif" font-size="14" lengthAdjust="spacing" textLength="61" x="461.5" y="508.3997">Nom : title</text><line style="stroke:#181818;stroke-width:0.5;" x1="456.5" x2="732.5" y1="515.1997" y2="515.1997"/><text fill="#000000" font-family="sans-serif" font-size="14" lengthAdjust="spacing" textLength="265" x="461.5" y="533.1996">DI com externe (Droit à l'Image) : checkbox</text><text fill="#000000" font-family="sans-serif" font-size="14" lengthAdjust="spacing" textLength="266" x="461.5" y="549.9996">DI com interne (Droit à l'Image)  : checkbox</text><text fill="#000000" font-family="sans-serif" font-size="14" lengthAdjust="spacing" textLength="211" x="461.5" y="566.7995">Infos santé (Allergies...) : rich_text</text></g><!--MD5=[97bc2f42a14d175e50b32215e43991e9]
class a52cafa4f_55ed_4b60_aad7_fe839adfba31--><g id="elem_a52cafa4f_55ed_4b60_aad7_fe839adfba31"><rect codeLine="23" fill="#F1F1F1" height="98.3998" id="a52cafa4f_55ed_4b60_aad7_fe839adfba31" rx="2.5" ry="2.5" style="stroke:#181818;stroke-width:0.5;" width="204" x="458.5" y="852"/><ellipse cx="518.25" cy="868" fill="#ADD1B2" rx="11" ry="11" style="stroke:#181818;stroke-width:1.0;"/><path d="M517.6094,871.7813 Q518.4063,871.7813 518.9688,871.5938 Q519.5469,871.3906 519.7813,871.1719 Q520.0313,870.9375 520.2656,870.75 Q520.5156,870.5469 520.7344,870.5469 Q521.0781,870.5469 521.3281,870.8125 Q521.5938,871.0625 521.5938,871.3906 Q521.5938,872.125 520.4219,872.8125 Q519.2656,873.4844 517.5625,873.4844 Q515.4063,873.4844 513.9844,872.2188 Q512.5625,870.9531 512.5625,869.0156 L512.5625,867.8906 Q512.5625,865.8594 513.8906,864.4844 Q515.2188,863.0938 517.1875,863.0938 Q518.375,863.0938 519.5938,863.6719 L519.7656,863.75 Q520.0625,863.3438 520.4844,863.3438 Q520.9688,863.3438 521.1406,863.6406 Q521.3281,863.9219 521.3281,864.4688 L521.3281,865.8906 Q521.3281,867.0156 520.4844,867.0156 Q520.1719,867.0156 519.9688,866.8438 Q519.7813,866.6719 519.7344,866.5313 Q519.7031,866.375 519.6563,866.1094 Q519.5469,865.5938 519.0313,865.2813 Q518.5156,864.9688 518.0625,864.8906 Q517.625,864.7969 517.25,864.7969 Q515.9688,864.7969 515.1094,865.6719 Q514.2656,866.5469 514.2656,867.8906 L514.2656,868.9844 Q514.2656,870.2656 515.1719,871.0313 Q516.0781,871.7813 517.6094,871.7813 Z " fill="#000000"/><text fill="#000000" font-family="sans-serif" font-size="14" lengthAdjust="spacing" textLength="76" x="538.75" y="873.6">Tarifications</text><line style="stroke:#181818;stroke-width:0.5;" x1="459.5" x2="661.5" y1="884" y2="884"/><text fill="#000000" font-family="sans-serif" font-size="14" lengthAdjust="spacing" textLength="192" x="464.5" y="901.9999">Date de création : created_time</text><text fill="#000000" font-family="sans-serif" font-size="14" lengthAdjust="spacing" textLength="78" x="464.5" y="918.7999">QF : number</text><text fill="#000000" font-family="sans-serif" font-size="14" lengthAdjust="spacing" textLength="61" x="464.5" y="935.5998">Nom : title</text><line style="stroke:#181818;stroke-width:0.5;" x1="459.5" x2="661.5" y1="942.3998" y2="942.3998"/></g><!--MD5=[40f04548d46d3af854b7c6764824d54d]
class a427135bf_8af4_45c9_8a62_f9ea7151fab0--><g id="elem_a427135bf_8af4_45c9_8a62_f9ea7151fab0"><rect codeLine="31" fill="#F1F1F1" height="215.9993" id="a427135bf_8af4_45c9_8a62_f9ea7151fab0" rx="2.5" ry="2.5" style="stroke:#181818;stroke-width:0.5;" width="206" x="724.5" y="793"/><ellipse cx="799.25" cy="809" fill="#ADD1B2" rx="11" ry="11" style="stroke:#181818;stroke-width:1.0;"/><path d="M798.6094,812.7813 Q799.4063,812.7813 799.9688,812.5938 Q800.5469,812.3906 800.7813,812.1719 Q801.0313,811.9375 801.2656,811.75 Q801.5156,811.5469 801.7344,811.5469 Q802.0781,811.5469 802.3281,811.8125 Q802.5938,812.0625 802.5938,812.3906 Q802.5938,813.125 801.4219,813.8125 Q800.2656,814.4844 798.5625,814.4844 Q796.4063,814.4844 794.9844,813.2188 Q793.5625,811.9531 793.5625,810.0156 L793.5625,808.8906 Q793.5625,806.8594 794.8906,805.4844 Q796.2188,804.0938 798.1875,804.0938 Q799.375,804.0938 800.5938,804.6719 L800.7656,804.75 Q801.0625,804.3438 801.4844,804.3438 Q801.9688,804.3438 802.1406,804.6406 Q802.3281,804.9219 802.3281,805.4688 L802.3281,806.8906 Q802.3281,808.0156 801.4844,808.0156 Q801.1719,808.0156 800.9688,807.8438 Q800.7813,807.6719 800.7344,807.5313 Q800.7031,807.375 800.6563,807.1094 Q800.5469,806.5938 800.0313,806.2813 Q799.5156,805.9688 799.0625,805.8906 Q798.625,805.7969 798.25,805.7969 Q796.9688,805.7969 796.1094,806.6719 Q795.2656,807.5469 795.2656,808.8906 L795.2656,809.9844 Q795.2656,811.2656 796.1719,812.0313 Q797.0781,812.7813 798.6094,812.7813 Z " fill="#000000"/><text fill="#000000" font-family="sans-serif" font-size="14" lengthAdjust="spacing" textLength="48" x="819.75" y="814.6">Parents</text><line style="stroke:#181818;stroke-width:0.5;" x1="725.5" x2="929.5" y1="825" y2="825"/><text fill="#000000" font-family="sans-serif" font-size="14" lengthAdjust="spacing" textLength="191" x="730.5" y="842.9999">Téléphone Fix : phone_number</text><text fill="#000000" font-family="sans-serif" font-size="14" lengthAdjust="spacing" textLength="169" x="730.5" y="859.7999">Téléphone : phone_number</text><text fill="#000000" font-family="sans-serif" font-size="14" lengthAdjust="spacing" textLength="109" x="730.5" y="876.5998">Commune : select</text><text fill="#000000" font-family="sans-serif" font-size="14" lengthAdjust="spacing" textLength="111" x="730.5" y="893.3997">Profession : select</text><text fill="#000000" font-family="sans-serif" font-size="14" lengthAdjust="spacing" textLength="130" x="730.5" y="910.1996">Lien familliale : select</text><text fill="#000000" font-family="sans-serif" font-size="14" lengthAdjust="spacing" textLength="194" x="730.5" y="926.9996">Téléphone Pro : phone_number</text><text fill="#000000" font-family="sans-serif" font-size="14" lengthAdjust="spacing" textLength="133" x="730.5" y="943.7995">Code Postal : number</text><text fill="#000000" font-family="sans-serif" font-size="14" lengthAdjust="spacing" textLength="78" x="730.5" y="960.5994">Email : email</text><text fill="#000000" font-family="sans-serif" font-size="14" lengthAdjust="spacing" textLength="115" x="730.5" y="977.3994">Adresse : rich_text</text><text fill="#000000" font-family="sans-serif" font-size="14" lengthAdjust="spacing" textLength="61" x="730.5" y="994.1993">Nom : title</text><line style="stroke:#181818;stroke-width:0.5;" x1="725.5" x2="929.5" y1="1000.9993" y2="1000.9993"/></g><!--MD5=[b6f1def744ce6fbebe943ff5a282956f]
class a3972ee2c_5987_468a_8d13_3b2e3b079b0b--><g id="elem_a3972ee2c_5987_468a_8d13_3b2e3b079b0b"><rect codeLine="46" fill="#F1F1F1" height="64.7999" id="a3972ee2c_5987_468a_8d13_3b2e3b079b0b" rx="2.5" ry="2.5" style="stroke:#181818;stroke-width:0.5;" width="73" x="398" y="249.5"/><ellipse cx="413" cy="265.5" fill="#ADD1B2" rx="11" ry="11" style="stroke:#181818;stroke-width:1.0;"/><path d="M412.3594,269.2813 Q413.1563,269.2813 413.7188,269.0938 Q414.2969,268.8906 414.5313,268.6719 Q414.7813,268.4375 415.0156,268.25 Q415.2656,268.0469 415.4844,268.0469 Q415.8281,268.0469 416.0781,268.3125 Q416.3438,268.5625 416.3438,268.8906 Q416.3438,269.625 415.1719,270.3125 Q414.0156,270.9844 412.3125,270.9844 Q410.1563,270.9844 408.7344,269.7188 Q407.3125,268.4531 407.3125,266.5156 L407.3125,265.3906 Q407.3125,263.3594 408.6406,261.9844 Q409.9688,260.5938 411.9375,260.5938 Q413.125,260.5938 414.3438,261.1719 L414.5156,261.25 Q414.8125,260.8438 415.2344,260.8438 Q415.7188,260.8438 415.8906,261.1406 Q416.0781,261.4219 416.0781,261.9688 L416.0781,263.3906 Q416.0781,264.5156 415.2344,264.5156 Q414.9219,264.5156 414.7188,264.3438 Q414.5313,264.1719 414.4844,264.0313 Q414.4531,263.875 414.4063,263.6094 Q414.2969,263.0938 413.7813,262.7813 Q413.2656,262.4688 412.8125,262.3906 Q412.375,262.2969 412,262.2969 Q410.7188,262.2969 409.8594,263.1719 Q409.0156,264.0469 409.0156,265.3906 L409.0156,266.4844 Q409.0156,267.7656 409.9219,268.5313 Q410.8281,269.2813 412.3594,269.2813 Z " fill="#000000"/><text fill="#000000" font-family="sans-serif" font-size="14" lengthAdjust="spacing" textLength="41" x="427" y="271.1">Postes</text><line style="stroke:#181818;stroke-width:0.5;" x1="399" x2="470" y1="281.5" y2="281.5"/><text fill="#000000" font-family="sans-serif" font-size="14" lengthAdjust="spacing" textLength="61" x="404" y="299.4999">Nom : title</text><line style="stroke:#181818;stroke-width:0.5;" x1="399" x2="470" y1="306.2999" y2="306.2999"/></g><!--MD5=[f7564f42357f5fe20dff03b4159e2992]
class af59f56ea_c7c8_4c31_98ca_dbf9b4dc79a0--><g id="elem_af59f56ea_c7c8_4c31_98ca_dbf9b4dc79a0"><rect codeLine="52" fill="#F1F1F1" height="64.7999" id="af59f56ea_c7c8_4c31_98ca_dbf9b4dc79a0" rx="2.5" ry="2.5" style="stroke:#181818;stroke-width:0.5;" width="97" x="465" y="651"/><ellipse cx="480" cy="667" fill="#ADD1B2" rx="11" ry="11" style="stroke:#181818;stroke-width:1.0;"/><path d="M479.3594,670.7813 Q480.1563,670.7813 480.7188,670.5938 Q481.2969,670.3906 481.5313,670.1719 Q481.7813,669.9375 482.0156,669.75 Q482.2656,669.5469 482.4844,669.5469 Q482.8281,669.5469 483.0781,669.8125 Q483.3438,670.0625 483.3438,670.3906 Q483.3438,671.125 482.1719,671.8125 Q481.0156,672.4844 479.3125,672.4844 Q477.1563,672.4844 475.7344,671.2188 Q474.3125,669.9531 474.3125,668.0156 L474.3125,666.8906 Q474.3125,664.8594 475.6406,663.4844 Q476.9688,662.0938 478.9375,662.0938 Q480.125,662.0938 481.3438,662.6719 L481.5156,662.75 Q481.8125,662.3438 482.2344,662.3438 Q482.7188,662.3438 482.8906,662.6406 Q483.0781,662.9219 483.0781,663.4688 L483.0781,664.8906 Q483.0781,666.0156 482.2344,666.0156 Q481.9219,666.0156 481.7188,665.8438 Q481.5313,665.6719 481.4844,665.5313 Q481.4531,665.375 481.4063,665.1094 Q481.2969,664.5938 480.7813,664.2813 Q480.2656,663.9688 479.8125,663.8906 Q479.375,663.7969 479,663.7969 Q477.7188,663.7969 476.8594,664.6719 Q476.0156,665.5469 476.0156,666.8906 L476.0156,667.9844 Q476.0156,669.2656 476.9219,670.0313 Q477.8281,670.7813 479.3594,670.7813 Z " fill="#000000"/><text fill="#000000" font-family="sans-serif" font-size="14" lengthAdjust="spacing" textLength="65" x="494" y="672.6">Suivi péda</text><line style="stroke:#181818;stroke-width:0.5;" x1="466" x2="561" y1="683" y2="683"/><text fill="#000000" font-family="sans-serif" font-size="14" lengthAdjust="spacing" textLength="61" x="471" y="700.9999">Nom : title</text><line style="stroke:#181818;stroke-width:0.5;" x1="466" x2="561" y1="707.7999" y2="707.7999"/></g><!--MD5=[a4a8d1585907da2c386d557e33d4923f]
class a8544a340_feeb_49df_a212_dfad5ec2859b--><g id="elem_a8544a340_feeb_49df_a212_dfad5ec2859b"><rect codeLine="58" fill="#F1F1F1" height="115.1997" id="a8544a340_feeb_49df_a212_dfad5ec2859b" rx="2.5" ry="2.5" style="stroke:#181818;stroke-width:0.5;" width="182" x="735.5" y="1086"/><ellipse cx="793.75" cy="1102" fill="#ADD1B2" rx="11" ry="11" style="stroke:#181818;stroke-width:1.0;"/><path d="M793.1094,1105.7813 Q793.9063,1105.7813 794.4688,1105.5938 Q795.0469,1105.3906 795.2813,1105.1719 Q795.5313,1104.9375 795.7656,1104.75 Q796.0156,1104.5469 796.2344,1104.5469 Q796.5781,1104.5469 796.8281,1104.8125 Q797.0938,1105.0625 797.0938,1105.3906 Q797.0938,1106.125 795.9219,1106.8125 Q794.7656,1107.4844 793.0625,1107.4844 Q790.9063,1107.4844 789.4844,1106.2188 Q788.0625,1104.9531 788.0625,1103.0156 L788.0625,1101.8906 Q788.0625,1099.8594 789.3906,1098.4844 Q790.7188,1097.0938 792.6875,1097.0938 Q793.875,1097.0938 795.0938,1097.6719 L795.2656,1097.75 Q795.5625,1097.3438 795.9844,1097.3438 Q796.4688,1097.3438 796.6406,1097.6406 Q796.8281,1097.9219 796.8281,1098.4688 L796.8281,1099.8906 Q796.8281,1101.0156 795.9844,1101.0156 Q795.6719,1101.0156 795.4688,1100.8438 Q795.2813,1100.6719 795.2344,1100.5313 Q795.2031,1100.375 795.1563,1100.1094 Q795.0469,1099.5938 794.5313,1099.2813 Q794.0156,1098.9688 793.5625,1098.8906 Q793.125,1098.7969 792.75,1098.7969 Q791.4688,1098.7969 790.6094,1099.6719 Q789.7656,1100.5469 789.7656,1101.8906 L789.7656,1102.9844 Q789.7656,1104.2656 790.6719,1105.0313 Q791.5781,1105.7813 793.1094,1105.7813 Z " fill="#000000"/><text fill="#000000" font-family="sans-serif" font-size="14" lengthAdjust="spacing" textLength="57" x="814.25" y="1107.6">Membres</text><line style="stroke:#181818;stroke-width:0.5;" x1="736.5" x2="916.5" y1="1118" y2="1118"/><text fill="#000000" font-family="sans-serif" font-size="14" lengthAdjust="spacing" textLength="170" x="741.5" y="1135.9999">Cotisation à jour : checkbox</text><text fill="#000000" font-family="sans-serif" font-size="14" lengthAdjust="spacing" textLength="84" x="741.5" y="1152.7999">Statut : select</text><text fill="#000000" font-family="sans-serif" font-size="14" lengthAdjust="spacing" textLength="96" x="741.5" y="1169.5998">Adhésion : date</text><text fill="#000000" font-family="sans-serif" font-size="14" lengthAdjust="spacing" textLength="61" x="741.5" y="1186.3997">Nom : title</text><line style="stroke:#181818;stroke-width:0.5;" x1="736.5" x2="916.5" y1="1193.1997" y2="1193.1997"/></g><!--MD5=[921b408c008a6877889d2de5be81756e]
class ae6c1adb4_925c_432a_93b4_6b46991db822--><g id="elem_ae6c1adb4_925c_432a_93b4_6b46991db822"><rect codeLine="67" fill="#F1F1F1" height="64.7999" id="ae6c1adb4_925c_432a_93b4_6b46991db822" rx="2.5" ry="2.5" style="stroke:#181818;stroke-width:0.5;" width="79" x="635" y="651"/><ellipse cx="650" cy="667" fill="#ADD1B2" rx="11" ry="11" style="stroke:#181818;stroke-width:1.0;"/><path d="M649.3594,670.7813 Q650.1563,670.7813 650.7188,670.5938 Q651.2969,670.3906 651.5313,670.1719 Q651.7813,669.9375 652.0156,669.75 Q652.2656,669.5469 652.4844,669.5469 Q652.8281,669.5469 653.0781,669.8125 Q653.3438,670.0625 653.3438,670.3906 Q653.3438,671.125 652.1719,671.8125 Q651.0156,672.4844 649.3125,672.4844 Q647.1563,672.4844 645.7344,671.2188 Q644.3125,669.9531 644.3125,668.0156 L644.3125,666.8906 Q644.3125,664.8594 645.6406,663.4844 Q646.9688,662.0938 648.9375,662.0938 Q650.125,662.0938 651.3438,662.6719 L651.5156,662.75 Q651.8125,662.3438 652.2344,662.3438 Q652.7188,662.3438 652.8906,662.6406 Q653.0781,662.9219 653.0781,663.4688 L653.0781,664.8906 Q653.0781,666.0156 652.2344,666.0156 Q651.9219,666.0156 651.7188,665.8438 Q651.5313,665.6719 651.4844,665.5313 Q651.4531,665.375 651.4063,665.1094 Q651.2969,664.5938 650.7813,664.2813 Q650.2656,663.9688 649.8125,663.8906 Q649.375,663.7969 649,663.7969 Q647.7188,663.7969 646.8594,664.6719 Q646.0156,665.5469 646.0156,666.8906 L646.0156,667.9844 Q646.0156,669.2656 646.9219,670.0313 Q647.8281,670.7813 649.3594,670.7813 Z " fill="#000000"/><text fill="#000000" font-family="sans-serif" font-size="14" lengthAdjust="spacing" textLength="47" x="664" y="672.6">Fratries</text><line style="stroke:#181818;stroke-width:0.5;" x1="636" x2="713" y1="683" y2="683"/><text fill="#000000" font-family="sans-serif" font-size="14" lengthAdjust="spacing" textLength="61" x="641" y="700.9999">Nom : title</text><line style="stroke:#181818;stroke-width:0.5;" x1="636" x2="713" y1="707.7999" y2="707.7999"/></g><!--MD5=[6ae12059300634d7884ead48ca8878cd]
class a201b7ebc_2922_4406_9b24_e97a1e2a3ca9--><g id="elem_a201b7ebc_2922_4406_9b24_e97a1e2a3ca9"><rect codeLine="73" fill="#F1F1F1" height="148.7996" id="a201b7ebc_2922_4406_9b24_e97a1e2a3ca9" rx="2.5" ry="2.5" style="stroke:#181818;stroke-width:0.5;" width="181" x="49" y="7"/><ellipse cx="103.25" cy="23" fill="#ADD1B2" rx="11" ry="11" style="stroke:#181818;stroke-width:1.0;"/><path d="M102.6094,26.7813 Q103.4063,26.7813 103.9688,26.5938 Q104.5469,26.3906 104.7813,26.1719 Q105.0313,25.9375 105.2656,25.75 Q105.5156,25.5469 105.7344,25.5469 Q106.0781,25.5469 106.3281,25.8125 Q106.5938,26.0625 106.5938,26.3906 Q106.5938,27.125 105.4219,27.8125 Q104.2656,28.4844 102.5625,28.4844 Q100.4063,28.4844 98.9844,27.2188 Q97.5625,25.9531 97.5625,24.0156 L97.5625,22.8906 Q97.5625,20.8594 98.8906,19.4844 Q100.2188,18.0938 102.1875,18.0938 Q103.375,18.0938 104.5938,18.6719 L104.7656,18.75 Q105.0625,18.3438 105.4844,18.3438 Q105.9688,18.3438 106.1406,18.6406 Q106.3281,18.9219 106.3281,19.4688 L106.3281,20.8906 Q106.3281,22.0156 105.4844,22.0156 Q105.1719,22.0156 104.9688,21.8438 Q104.7813,21.6719 104.7344,21.5313 Q104.7031,21.375 104.6563,21.1094 Q104.5469,20.5938 104.0313,20.2813 Q103.5156,19.9688 103.0625,19.8906 Q102.625,19.7969 102.25,19.7969 Q100.9688,19.7969 100.1094,20.6719 Q99.2656,21.5469 99.2656,22.8906 L99.2656,23.9844 Q99.2656,25.2656 100.1719,26.0313 Q101.0781,26.7813 102.6094,26.7813 Z " fill="#000000"/><text fill="#000000" font-family="sans-serif" font-size="14" lengthAdjust="spacing" textLength="64" x="123.75" y="28.6">Candidats</text><line style="stroke:#181818;stroke-width:0.5;" x1="50" x2="229" y1="39" y2="39"/><text fill="#000000" font-family="sans-serif" font-size="14" lengthAdjust="spacing" textLength="83" x="55" y="56.9999">E-mail : email</text><text fill="#000000" font-family="sans-serif" font-size="14" lengthAdjust="spacing" textLength="145" x="55" y="73.7999">Étiquettes : multi_select</text><text fill="#000000" font-family="sans-serif" font-size="14" lengthAdjust="spacing" textLength="169" x="55" y="90.5998">Téléphone : phone_number</text><text fill="#000000" font-family="sans-serif" font-size="14" lengthAdjust="spacing" textLength="56" x="55" y="107.3997">LM : files</text><text fill="#000000" font-family="sans-serif" font-size="14" lengthAdjust="spacing" textLength="55" x="55" y="124.1996">CV : files</text><text fill="#000000" font-family="sans-serif" font-size="14" lengthAdjust="spacing" textLength="61" x="55" y="140.9996">Nom : title</text><line style="stroke:#181818;stroke-width:0.5;" x1="50" x2="229" y1="147.7996" y2="147.7996"/></g><!--MD5=[911f323bd5d02a316e28ee129bd3e37b]
class a9207ea7b_6fa4_42b0_b99c_20079498459b--><g id="elem_a9207ea7b_6fa4_42b0_b99c_20079498459b"><rect codeLine="84" fill="#F1F1F1" height="64.7999" id="a9207ea7b_6fa4_42b0_b99c_20079498459b" rx="2.5" ry="2.5" style="stroke:#181818;stroke-width:0.5;" width="100" x="545.5" y="249.5"/><ellipse cx="560.5" cy="265.5" fill="#ADD1B2" rx="11" ry="11" style="stroke:#181818;stroke-width:1.0;"/><path d="M559.8594,269.2813 Q560.6563,269.2813 561.2188,269.0938 Q561.7969,268.8906 562.0313,268.6719 Q562.2813,268.4375 562.5156,268.25 Q562.7656,268.0469 562.9844,268.0469 Q563.3281,268.0469 563.5781,268.3125 Q563.8438,268.5625 563.8438,268.8906 Q563.8438,269.625 562.6719,270.3125 Q561.5156,270.9844 559.8125,270.9844 Q557.6563,270.9844 556.2344,269.7188 Q554.8125,268.4531 554.8125,266.5156 L554.8125,265.3906 Q554.8125,263.3594 556.1406,261.9844 Q557.4688,260.5938 559.4375,260.5938 Q560.625,260.5938 561.8438,261.1719 L562.0156,261.25 Q562.3125,260.8438 562.7344,260.8438 Q563.2188,260.8438 563.3906,261.1406 Q563.5781,261.4219 563.5781,261.9688 L563.5781,263.3906 Q563.5781,264.5156 562.7344,264.5156 Q562.4219,264.5156 562.2188,264.3438 Q562.0313,264.1719 561.9844,264.0313 Q561.9531,263.875 561.9063,263.6094 Q561.7969,263.0938 561.2813,262.7813 Q560.7656,262.4688 560.3125,262.3906 Q559.875,262.2969 559.5,262.2969 Q558.2188,262.2969 557.3594,263.1719 Q556.5156,264.0469 556.5156,265.3906 L556.5156,266.4844 Q556.5156,267.7656 557.4219,268.5313 Q558.3281,269.2813 559.8594,269.2813 Z " fill="#000000"/><text fill="#000000" font-family="sans-serif" font-size="14" lengthAdjust="spacing" textLength="68" x="574.5" y="271.1">Ambiances</text><line style="stroke:#181818;stroke-width:0.5;" x1="546.5" x2="644.5" y1="281.5" y2="281.5"/><text fill="#000000" font-family="sans-serif" font-size="14" lengthAdjust="spacing" textLength="69" x="551.5" y="299.4999">Name : title</text><line style="stroke:#181818;stroke-width:0.5;" x1="546.5" x2="644.5" y1="306.2999" y2="306.2999"/></g><!--MD5=[e6701378a5a50f244a5ba339470a382d]
class aa7ef2bb3_a071_456d_97a2_eae809446c8a--><g id="elem_aa7ef2bb3_a071_456d_97a2_eae809446c8a"><rect codeLine="90" fill="#F1F1F1" height="131.9996" id="aa7ef2bb3_a071_456d_97a2_eae809446c8a" rx="2.5" ry="2.5" style="stroke:#181818;stroke-width:0.5;" width="136" x="265.5" y="15.5"/><ellipse cx="306.6" cy="31.5" fill="#ADD1B2" rx="11" ry="11" style="stroke:#181818;stroke-width:1.0;"/><path d="M305.9594,35.2813 Q306.7563,35.2813 307.3188,35.0938 Q307.8969,34.8906 308.1313,34.6719 Q308.3813,34.4375 308.6156,34.25 Q308.8656,34.0469 309.0844,34.0469 Q309.4281,34.0469 309.6781,34.3125 Q309.9438,34.5625 309.9438,34.8906 Q309.9438,35.625 308.7719,36.3125 Q307.6156,36.9844 305.9125,36.9844 Q303.7563,36.9844 302.3344,35.7188 Q300.9125,34.4531 300.9125,32.5156 L300.9125,31.3906 Q300.9125,29.3594 302.2406,27.9844 Q303.5688,26.5938 305.5375,26.5938 Q306.725,26.5938 307.9438,27.1719 L308.1156,27.25 Q308.4125,26.8438 308.8344,26.8438 Q309.3188,26.8438 309.4906,27.1406 Q309.6781,27.4219 309.6781,27.9688 L309.6781,29.3906 Q309.6781,30.5156 308.8344,30.5156 Q308.5219,30.5156 308.3188,30.3438 Q308.1313,30.1719 308.0844,30.0313 Q308.0531,29.875 308.0063,29.6094 Q307.8969,29.0938 307.3813,28.7813 Q306.8656,28.4688 306.4125,28.3906 Q305.975,28.2969 305.6,28.2969 Q304.3188,28.2969 303.4594,29.1719 Q302.6156,30.0469 302.6156,31.3906 L302.6156,32.4844 Q302.6156,33.7656 303.5219,34.5313 Q304.4281,35.2813 305.9594,35.2813 Z " fill="#000000"/><text fill="#000000" font-family="sans-serif" font-size="14" lengthAdjust="spacing" textLength="46" x="326.4" y="37.1">Tâches</text><line style="stroke:#181818;stroke-width:0.5;" x1="266.5" x2="400.5" y1="47.5" y2="47.5"/><text fill="#000000" font-family="sans-serif" font-size="14" lengthAdjust="spacing" textLength="99" x="271.5" y="65.4999">Urgence : select</text><text fill="#000000" font-family="sans-serif" font-size="14" lengthAdjust="spacing" textLength="75" x="271.5" y="82.2999">État : status</text><text fill="#000000" font-family="sans-serif" font-size="14" lengthAdjust="spacing" textLength="116" x="271.5" y="99.0998">Importance : select</text><text fill="#000000" font-family="sans-serif" font-size="14" lengthAdjust="spacing" textLength="124" x="271.5" y="115.8997">Assignation : people</text><text fill="#000000" font-family="sans-serif" font-size="14" lengthAdjust="spacing" textLength="61" x="271.5" y="132.6996">Nom : title</text><line style="stroke:#181818;stroke-width:0.5;" x1="266.5" x2="400.5" y1="139.4996" y2="139.4996"/></g><!--MD5=[d334c083162db413c862a818e10dfbc9]
class a490572d8_5718_4522_9000_a2df0cc1fc0d--><g id="elem_a490572d8_5718_4522_9000_a2df0cc1fc0d"><rect codeLine="100" fill="#F1F1F1" height="98.3998" id="a490572d8_5718_4522_9000_a2df0cc1fc0d" rx="2.5" ry="2.5" style="stroke:#181818;stroke-width:0.5;" width="265" x="7" y="233"/><ellipse cx="22" cy="249" fill="#ADD1B2" rx="11" ry="11" style="stroke:#181818;stroke-width:1.0;"/><path d="M21.3594,252.7813 Q22.1563,252.7813 22.7188,252.5938 Q23.2969,252.3906 23.5313,252.1719 Q23.7813,251.9375 24.0156,251.75 Q24.2656,251.5469 24.4844,251.5469 Q24.8281,251.5469 25.0781,251.8125 Q25.3438,252.0625 25.3438,252.3906 Q25.3438,253.125 24.1719,253.8125 Q23.0156,254.4844 21.3125,254.4844 Q19.1563,254.4844 17.7344,253.2188 Q16.3125,251.9531 16.3125,250.0156 L16.3125,248.8906 Q16.3125,246.8594 17.6406,245.4844 Q18.9688,244.0938 20.9375,244.0938 Q22.125,244.0938 23.3438,244.6719 L23.5156,244.75 Q23.8125,244.3438 24.2344,244.3438 Q24.7188,244.3438 24.8906,244.6406 Q25.0781,244.9219 25.0781,245.4688 L25.0781,246.8906 Q25.0781,248.0156 24.2344,248.0156 Q23.9219,248.0156 23.7188,247.8438 Q23.5313,247.6719 23.4844,247.5313 Q23.4531,247.375 23.4063,247.1094 Q23.2969,246.5938 22.7813,246.2813 Q22.2656,245.9688 21.8125,245.8906 Q21.375,245.7969 21,245.7969 Q19.7188,245.7969 18.8594,246.6719 Q18.0156,247.5469 18.0156,248.8906 L18.0156,249.9844 Q18.0156,251.2656 18.9219,252.0313 Q19.8281,252.7813 21.3594,252.7813 Z " fill="#000000"/><text fill="#000000" font-family="sans-serif" font-size="14" lengthAdjust="spacing" textLength="233" x="36" y="254.6">Election sans candidats [TEMPLATE]</text><line style="stroke:#181818;stroke-width:0.5;" x1="8" x2="271" y1="265" y2="265"/><text fill="#000000" font-family="sans-serif" font-size="14" lengthAdjust="spacing" textLength="109" x="13" y="282.9999">Candidat : people</text><text fill="#000000" font-family="sans-serif" font-size="14" lengthAdjust="spacing" textLength="92" x="13" y="299.7999">Votant : people</text><text fill="#000000" font-family="sans-serif" font-size="14" lengthAdjust="spacing" textLength="61" x="13" y="316.5998">Nom : title</text><line style="stroke:#181818;stroke-width:0.5;" x1="8" x2="271" y1="323.3998" y2="323.3998"/></g><!--MD5=[6fe484071ac9e219f416a71d2b028653]
link a9d57dbe0_a584_4760_b484_2bcd51537ea5 to a3972ee2c_5987_468a_8d13_3b2e3b079b0b--><g id="link_a9d57dbe0_a584_4760_b484_2bcd51537ea5_a3972ee2c_5987_468a_8d13_3b2e3b079b0b"><path codeLine="107" d="M441.48,139.07 C415.91,159.41 392.78,179.06 389.5,186 C380.3,205.47 389.14,227.17 401.35,244.92 " fill="none" id="a9d57dbe0_a584_4760_b484_2bcd51537ea5-to-a3972ee2c_5987_468a_8d13_3b2e3b079b0b" style="stroke:#181818;stroke-width:1.0;"/><polygon fill="#181818" points="404.51,249.34,402.5306,239.6921,401.6025,245.2723,396.0223,244.3442,404.51,249.34" style="stroke:#181818;stroke-width:1.0;"/><text fill="#000000" font-family="sans-serif" font-size="13" lengthAdjust="spacing" textLength="33" x="390.5" y="200">Poste</text></g><!--MD5=[476519c50dc2320b46ded0837487de03]
link a3972ee2c_5987_468a_8d13_3b2e3b079b0b to a9d57dbe0_a584_4760_b484_2bcd51537ea5--><g id="link_a3972ee2c_5987_468a_8d13_3b2e3b079b0b_a9d57dbe0_a584_4760_b484_2bcd51537ea5"><path codeLine="115" d="M447.42,249.33 C458.98,221.01 476.25,178.7 490.5,143.77 " fill="none" id="a3972ee2c_5987_468a_8d13_3b2e3b079b0b-to-a9d57dbe0_a584_4760_b484_2bcd51537ea5" style="stroke:#181818;stroke-width:1.0;"/><polygon fill="#181818" points="492.4,139.12,485.2819,145.9268,490.5013,143.7455,492.6827,148.9648,492.4,139.12" style="stroke:#181818;stroke-width:1.0;"/><text fill="#000000" font-family="sans-serif" font-size="13" lengthAdjust="spacing" textLength="53" x="474.5" y="200">Moments</text></g><!--MD5=[03e4ef55f455c5e9aae9c766d9d4aa07]
link a9d57dbe0_a584_4760_b484_2bcd51537ea5 to a9207ea7b_6fa4_42b0_b99c_20079498459b--><g id="link_a9d57dbe0_a584_4760_b484_2bcd51537ea5_a9207ea7b_6fa4_42b0_b99c_20079498459b"><path codeLine="108" d="M535.14,139.27 C542.44,159.52 551.01,182.41 559.5,203 C565.17,216.75 571.89,231.63 577.98,244.67 " fill="none" id="a9d57dbe0_a584_4760_b484_2bcd51537ea5-to-a9207ea7b_6fa4_42b0_b99c_20079498459b" style="stroke:#181818;stroke-width:1.0;"/><polygon fill="#181818" points="580.19,249.38,579.9816,239.5333,578.0631,244.8549,572.7415,242.9364,580.19,249.38" style="stroke:#181818;stroke-width:1.0;"/><text fill="#000000" font-family="sans-serif" font-size="13" lengthAdjust="spacing" textLength="64" x="560.5" y="200">Ambiances</text></g><!--MD5=[20785f63dbe01dcec299e036c0413513]
link a9207ea7b_6fa4_42b0_b99c_20079498459b to a9d57dbe0_a584_4760_b484_2bcd51537ea5--><g id="link_a9207ea7b_6fa4_42b0_b99c_20079498459b_a9d57dbe0_a584_4760_b484_2bcd51537ea5"><path codeLine="121" d="M619.06,249.31 C629.94,230.62 638.65,206.66 629.5,186 C622.23,169.58 610.92,154.65 598.2,141.56 " fill="none" id="a9207ea7b_6fa4_42b0_b99c_20079498459b-to-a9d57dbe0_a584_4760_b484_2bcd51537ea5" style="stroke:#181818;stroke-width:1.0;"/><polygon fill="#181818" points="594.58,137.91,598.097,147.1095,598.1084,141.4527,603.7652,141.4641,594.58,137.91" style="stroke:#181818;stroke-width:1.0;"/><text fill="#000000" font-family="sans-serif" font-size="13" lengthAdjust="spacing" textLength="107" x="633.5" y="200">Planning/Moments</text></g><!--MD5=[f140735d2e651e4720624f65e3ec4e71]
link a38ddf8da_7426_4ad4_a46b_2f81a3b9dd91 to a9207ea7b_6fa4_42b0_b99c_20079498459b--><g id="link_a38ddf8da_7426_4ad4_a46b_2f81a3b9dd91_a9207ea7b_6fa4_42b0_b99c_20079498459b"><path codeLine="109" d="M598.29,407.77 C598.65,392.24 598.79,376.12 598.5,361 C598.24,347.6 597.74,332.92 597.21,319.94 " fill="none" id="a38ddf8da_7426_4ad4_a46b_2f81a3b9dd91-to-a9207ea7b_6fa4_42b0_b99c_20079498459b" style="stroke:#181818;stroke-width:1.0;"/><polygon fill="#181818" points="597,314.87,593.389,324.033,597.2141,319.8654,601.3817,323.6905,597,314.87" style="stroke:#181818;stroke-width:1.0;"/><text fill="#000000" font-family="sans-serif" font-size="13" lengthAdjust="spacing" textLength="71" x="599.5" y="375">&#128696; Ambiance</text></g><!--MD5=[94bd5703e06df7d0f64bc448521a8058]
link a9207ea7b_6fa4_42b0_b99c_20079498459b to a38ddf8da_7426_4ad4_a46b_2f81a3b9dd91--><g id="link_a9207ea7b_6fa4_42b0_b99c_20079498459b_a38ddf8da_7426_4ad4_a46b_2f81a3b9dd91"><path codeLine="122" d="M569.32,314.73 C559.87,328.15 550.34,344.48 545.5,361 C541.51,374.62 541.99,388.84 545.08,402.65 " fill="none" id="a9207ea7b_6fa4_42b0_b99c_20079498459b-to-a38ddf8da_7426_4ad4_a46b_2f81a3b9dd91" style="stroke:#181818;stroke-width:1.0;"/><polygon fill="#181818" points="546.34,407.72,548.0646,398.0233,545.1408,402.8659,540.2981,399.9421,546.34,407.72" style="stroke:#181818;stroke-width:1.0;"/><text fill="#000000" font-family="sans-serif" font-size="13" lengthAdjust="spacing" textLength="43" x="546.5" y="375">Enfants</text></g><!--MD5=[e84b271d9d6ddadbc1e9b8bde5a6de6b]
link a38ddf8da_7426_4ad4_a46b_2f81a3b9dd91 to af59f56ea_c7c8_4c31_98ca_dbf9b4dc79a0--><g id="link_a38ddf8da_7426_4ad4_a46b_2f81a3b9dd91_af59f56ea_c7c8_4c31_98ca_dbf9b4dc79a0"><path codeLine="110" d="M459.03,574.32 C451,583.43 443.98,593.32 438.5,604 C428.74,623.02 442.35,640.6 460.54,654.27 " fill="none" id="a38ddf8da_7426_4ad4_a46b_2f81a3b9dd91-to-af59f56ea_c7c8_4c31_98ca_dbf9b4dc79a0" style="stroke:#181818;stroke-width:1.0;"/><polygon fill="#181818" points="464.74,657.31,459.7837,648.7991,460.6859,654.3836,455.1014,655.2858,464.74,657.31" style="stroke:#181818;stroke-width:1.0;"/><text fill="#000000" font-family="sans-serif" font-size="13" lengthAdjust="spacing" textLength="65" x="439.5" y="618">Suivis péda</text></g><!--MD5=[e6d45414ecea15addc42499030642cc4]
link af59f56ea_c7c8_4c31_98ca_dbf9b4dc79a0 to a38ddf8da_7426_4ad4_a46b_2f81a3b9dd91--><g id="link_af59f56ea_c7c8_4c31_98ca_dbf9b4dc79a0_a38ddf8da_7426_4ad4_a46b_2f81a3b9dd91"><path codeLine="116" d="M526.9,651 C535.3,631.23 546.58,604.69 557.52,578.96 " fill="none" id="af59f56ea_c7c8_4c31_98ca_dbf9b4dc79a0-to-a38ddf8da_7426_4ad4_a46b_2f81a3b9dd91" style="stroke:#181818;stroke-width:1.0;"/><polygon fill="#181818" points="559.56,574.17,552.3558,580.8856,557.6025,578.7709,559.7172,584.0176,559.56,574.17" style="stroke:#181818;stroke-width:1.0;"/><text fill="#000000" font-family="sans-serif" font-size="13" lengthAdjust="spacing" textLength="50" x="547.5" y="618">&#129490; Enfant</text></g><!--MD5=[1278959c944ec4e9fa009a1ded57999d]
link a38ddf8da_7426_4ad4_a46b_2f81a3b9dd91 to ae6c1adb4_925c_432a_93b4_6b46991db822--><g id="link_a38ddf8da_7426_4ad4_a46b_2f81a3b9dd91_ae6c1adb4_925c_432a_93b4_6b46991db822"><path codeLine="111" d="M618.9,574.25 C624.42,590.01 630.68,606.21 637.5,621 C641.41,629.5 646.22,638.3 651.05,646.5 " fill="none" id="a38ddf8da_7426_4ad4_a46b_2f81a3b9dd91-to-ae6c1adb4_925c_432a_93b4_6b46991db822" style="stroke:#181818;stroke-width:1.0;"/><polygon fill="#181818" points="653.73,650.99,652.5439,641.2128,651.1638,646.6988,645.6779,645.3187,653.73,650.99" style="stroke:#181818;stroke-width:1.0;"/><text fill="#000000" font-family="sans-serif" font-size="13" lengthAdjust="spacing" textLength="80" x="638.5" y="618">&#128104;‍&#128105;‍&#128103;‍&#128102; Fratrie</text></g><!--MD5=[2b8fcdfd6dd2c2c4207ea683e40c824d]
link ae6c1adb4_925c_432a_93b4_6b46991db822 to a38ddf8da_7426_4ad4_a46b_2f81a3b9dd91--><g id="link_ae6c1adb4_925c_432a_93b4_6b46991db822_a38ddf8da_7426_4ad4_a46b_2f81a3b9dd91"><path codeLine="118" d="M711.29,650.71 C722.82,636.83 730.83,620.08 723.5,604 C719.45,595.12 714.31,586.67 708.43,578.69 " fill="none" id="ae6c1adb4_925c_432a_93b4_6b46991db822-to-a38ddf8da_7426_4ad4_a46b_2f81a3b9dd91" style="stroke:#181818;stroke-width:1.0;"/><polygon fill="#181818" points="705.08,574.31,707.362,583.8908,708.1141,578.2842,713.7207,579.0363,705.08,574.31" style="stroke:#181818;stroke-width:1.0;"/><text fill="#000000" font-family="sans-serif" font-size="13" lengthAdjust="spacing" textLength="56" x="726.5" y="618">&#129490; Enfants</text></g><!--MD5=[24ea8280df486b53e765d47d06e37ab2]
link a52cafa4f_55ed_4b60_aad7_fe839adfba31 to ae6c1adb4_925c_432a_93b4_6b46991db822--><g id="link_a52cafa4f_55ed_4b60_aad7_fe839adfba31_ae6c1adb4_925c_432a_93b4_6b46991db822"><path codeLine="112" d="M569.7,851.91 C577.27,820.14 590.13,778.52 610.5,746 C616.26,736.8 623.71,728 631.46,720.09 " fill="none" id="a52cafa4f_55ed_4b60_aad7_fe839adfba31-to-ae6c1adb4_925c_432a_93b4_6b46991db822" style="stroke:#181818;stroke-width:1.0;"/><polygon fill="#181818" points="635.29,716.27,626.0905,719.787,631.7473,719.7984,631.7359,725.4552,635.29,716.27" style="stroke:#181818;stroke-width:1.0;"/><text fill="#000000" font-family="sans-serif" font-size="13" lengthAdjust="spacing" textLength="80" x="611.5" y="760">&#128104;‍&#128105;‍&#128103;‍&#128102; Fratrie</text></g><!--MD5=[4e401bd137ba9ee5201c8a4c59195a8b]
link ae6c1adb4_925c_432a_93b4_6b46991db822 to a52cafa4f_55ed_4b60_aad7_fe839adfba31--><g id="link_ae6c1adb4_925c_432a_93b4_6b46991db822_a52cafa4f_55ed_4b60_aad7_fe839adfba31"><path codeLine="119" d="M634.75,698.55 C593.42,713.56 533.84,736.47 527.5,746 C507.64,775.83 516.77,815.48 530.4,847.07 " fill="none" id="ae6c1adb4_925c_432a_93b4_6b46991db822-to-a52cafa4f_55ed_4b60_aad7_fe839adfba31" style="stroke:#181818;stroke-width:1.0;"/><polygon fill="#181818" points="532.44,851.67,532.4343,841.8211,530.4067,847.1021,525.1257,845.0745,532.44,851.67" style="stroke:#181818;stroke-width:1.0;"/><text fill="#000000" font-family="sans-serif" font-size="13" lengthAdjust="spacing" textLength="64" x="528.5" y="760">Tarification</text></g><!--MD5=[71c2f032c8824cacf44ce5fccd38905e]
link a427135bf_8af4_45c9_8a62_f9ea7151fab0 to ae6c1adb4_925c_432a_93b4_6b46991db822--><g id="link_a427135bf_8af4_45c9_8a62_f9ea7151fab0_ae6c1adb4_925c_432a_93b4_6b46991db822"><path codeLine="113" d="M834.03,792.86 C831,776.08 825.3,759.76 815.5,746 C793.23,714.71 751.48,699.17 719.17,691.55 " fill="none" id="a427135bf_8af4_45c9_8a62_f9ea7151fab0-to-ae6c1adb4_925c_432a_93b4_6b46991db822" style="stroke:#181818;stroke-width:1.0;"/><polygon fill="#181818" points="714.07,690.4,721.9515,696.3061,718.9441,691.5149,723.7353,688.5075,714.07,690.4" style="stroke:#181818;stroke-width:1.0;"/><text fill="#000000" font-family="sans-serif" font-size="13" lengthAdjust="spacing" textLength="80" x="824.5" y="760">&#128104;‍&#128105;‍&#128103;‍&#128102; Fratrie</text></g><!--MD5=[67691f3b6e167a83ffe8e0ead2d90efe]
link ae6c1adb4_925c_432a_93b4_6b46991db822 to a427135bf_8af4_45c9_8a62_f9ea7151fab0--><g id="link_ae6c1adb4_925c_432a_93b4_6b46991db822_a427135bf_8af4_45c9_8a62_f9ea7151fab0"><path codeLine="120" d="M696.14,716.32 C705.94,730.64 717.73,747.72 728.5,763 C734.39,771.35 740.5,779.96 746.67,788.6 " fill="none" id="ae6c1adb4_925c_432a_93b4_6b46991db822-to-a427135bf_8af4_45c9_8a62_f9ea7151fab0" style="stroke:#181818;stroke-width:1.0;"/><polygon fill="#181818" points="749.71,792.85,747.7242,783.2034,746.7998,788.7842,741.219,787.8598,749.71,792.85" style="stroke:#181818;stroke-width:1.0;"/><text fill="#000000" font-family="sans-serif" font-size="13" lengthAdjust="spacing" textLength="77" x="729.5" y="760">&#129489;‍&#129309;‍&#129489; Parents</text></g><!--MD5=[9594fdcefec63ca679a4cb93516b94f1]
link a427135bf_8af4_45c9_8a62_f9ea7151fab0 to a8544a340_feeb_49df_a212_dfad5ec2859b--><g id="link_a427135bf_8af4_45c9_8a62_f9ea7151fab0_a8544a340_feeb_49df_a212_dfad5ec2859b"><path codeLine="114" d="M778.31,1009.29 C775.76,1024.88 775.64,1040.8 779.5,1056 C781.67,1064.53 784.86,1073.12 788.58,1081.41 " fill="none" id="a427135bf_8af4_45c9_8a62_f9ea7151fab0-to-a8544a340_feeb_49df_a212_dfad5ec2859b" style="stroke:#181818;stroke-width:1.0;"/><polygon fill="#181818" points="790.7,1085.98,790.5544,1076.1322,788.602,1081.4415,783.2928,1079.489,790.7,1085.98" style="stroke:#181818;stroke-width:1.0;"/><text fill="#000000" font-family="sans-serif" font-size="13" lengthAdjust="spacing" textLength="47" x="780.5" y="1053">Membre</text></g><!--MD5=[538a9b4b28317f28df75d51fa5239c52]
link a8544a340_feeb_49df_a212_dfad5ec2859b to a427135bf_8af4_45c9_8a62_f9ea7151fab0--><g id="link_a8544a340_feeb_49df_a212_dfad5ec2859b_a427135bf_8af4_45c9_8a62_f9ea7151fab0"><path codeLine="117" d="M831,1085.76 C831.62,1075.85 832.17,1065.63 832.5,1056 C832.97,1042.55 833.06,1028.43 832.9,1014.44 " fill="none" id="a8544a340_feeb_49df_a212_dfad5ec2859b-to-a427135bf_8af4_45c9_8a62_f9ea7151fab0" style="stroke:#181818;stroke-width:1.0;"/><polygon fill="#181818" points="832.83,1009.29,828.959,1018.3462,832.9014,1014.2895,836.9582,1018.2319,832.83,1009.29" style="stroke:#181818;stroke-width:1.0;"/><text fill="#000000" font-family="sans-serif" font-size="13" lengthAdjust="spacing" textLength="71" x="833.5" y="1053">&#129489;‍&#129309;‍&#129489; Parent</text></g><!--MD5=[f40f6d86854328d8bffb1639c2765b5b]
@startuml
        
                class "Moments" as a9d57dbe0_a584_4760_b484_2bcd51537ea5 {
                        Plage horaire : select
Jour : select
Nom : title
Pause ou HI : checkbox
                }

        

                class "Enfants" as a38ddf8da_7426_4ad4_a46b_2f81a3b9dd91 {
                        DI com externe (Droit à l'Image) : checkbox
DI com interne (Droit à l'Image)  : checkbox
Sexe : select
Date de naissance : date
Infos santé (Allergies...) : rich_text
Lieu de naissance : rich_text
Nom : title
                }

        

                class "Tarifications" as a52cafa4f_55ed_4b60_aad7_fe839adfba31 {
                        Date de création : created_time
QF : number
Nom : title
                }

        

                class "Parents" as a427135bf_8af4_45c9_8a62_f9ea7151fab0 {
                        Téléphone Fix : phone_number
Téléphone : phone_number
Commune : select
Profession : select
Lien familliale : select
Téléphone Pro : phone_number
Code Postal : number
Email : email
Adresse : rich_text
Nom : title
                }

        

                class "Postes" as a3972ee2c_5987_468a_8d13_3b2e3b079b0b {
                        Nom : title
                }

        

                class "Suivi péda" as af59f56ea_c7c8_4c31_98ca_dbf9b4dc79a0 {
                        Nom : title
                }

        

                class "Membres" as a8544a340_feeb_49df_a212_dfad5ec2859b {
                        Cotisation à jour : checkbox
Statut : select
Adhésion : date
Nom : title
                }

        

                class "Fratries" as ae6c1adb4_925c_432a_93b4_6b46991db822 {
                        Nom : title
                }

        

                class "Candidats" as a201b7ebc_2922_4406_9b24_e97a1e2a3ca9 {
                        E-mail : email
Étiquettes : multi_select
Téléphone : phone_number
LM : files
CV : files
Nom : title
                }

        

                class "Ambiances" as a9207ea7b_6fa4_42b0_b99c_20079498459b {
                        Name : title
                }

        

                class "Tâches" as aa7ef2bb3_a071_456d_97a2_eae809446c8a {
                        Urgence : select
État : status
Importance : select
Assignation : people
Nom : title
                }

        

                class "Election sans candidats [TEMPLATE]" as a490572d8_5718_4522_9000_a2df0cc1fc0d {
                        Candidat : people
Votant : people
Nom : title
                }

        
        a9d57dbe0_a584_4760_b484_2bcd51537ea5 - -> a3972ee2c_5987_468a_8d13_3b2e3b079b0b : Poste
a9d57dbe0_a584_4760_b484_2bcd51537ea5 - -> a9207ea7b_6fa4_42b0_b99c_20079498459b : Ambiances
a38ddf8da_7426_4ad4_a46b_2f81a3b9dd91 - -> a9207ea7b_6fa4_42b0_b99c_20079498459b : 🚸 Ambiance
a38ddf8da_7426_4ad4_a46b_2f81a3b9dd91 - -> af59f56ea_c7c8_4c31_98ca_dbf9b4dc79a0 : Suivis péda
a38ddf8da_7426_4ad4_a46b_2f81a3b9dd91 - -> ae6c1adb4_925c_432a_93b4_6b46991db822 : 👨‍👩‍👧‍👦 Fratrie
a52cafa4f_55ed_4b60_aad7_fe839adfba31 - -> ae6c1adb4_925c_432a_93b4_6b46991db822 : 👨‍👩‍👧‍👦 Fratrie
a427135bf_8af4_45c9_8a62_f9ea7151fab0 - -> ae6c1adb4_925c_432a_93b4_6b46991db822 : 👨‍👩‍👧‍👦 Fratrie
a427135bf_8af4_45c9_8a62_f9ea7151fab0 - -> a8544a340_feeb_49df_a212_dfad5ec2859b : Membre
a3972ee2c_5987_468a_8d13_3b2e3b079b0b - -> a9d57dbe0_a584_4760_b484_2bcd51537ea5 : Moments
af59f56ea_c7c8_4c31_98ca_dbf9b4dc79a0 - -> a38ddf8da_7426_4ad4_a46b_2f81a3b9dd91 : 🧒 Enfant
a8544a340_feeb_49df_a212_dfad5ec2859b - -> a427135bf_8af4_45c9_8a62_f9ea7151fab0 : 🧑‍🤝‍🧑 Parent
ae6c1adb4_925c_432a_93b4_6b46991db822 - -> a38ddf8da_7426_4ad4_a46b_2f81a3b9dd91 : 🧒 Enfants
ae6c1adb4_925c_432a_93b4_6b46991db822 - -> a52cafa4f_55ed_4b60_aad7_fe839adfba31 : Tarification
ae6c1adb4_925c_432a_93b4_6b46991db822 - -> a427135bf_8af4_45c9_8a62_f9ea7151fab0 : 🧑‍🤝‍🧑 Parents
a9207ea7b_6fa4_42b0_b99c_20079498459b - -> a9d57dbe0_a584_4760_b484_2bcd51537ea5 : Planning/Moments
a9207ea7b_6fa4_42b0_b99c_20079498459b - -> a38ddf8da_7426_4ad4_a46b_2f81a3b9dd91 : Enfants
@enduml

PlantUML version 1.2022.5(Sat Apr 30 10:55:52 GMT 2022)
(GPL source distribution)
Java Runtime: OpenJDK Runtime Environment
JVM: OpenJDK 64-Bit Server VM
Default Encoding: UTF-8
Language: en
Country: US
--></g></svg>